<svg width="1108" height="919" viewBox="0 0 1108 919" fill="none" xmlns="http://www.w3.org/2000/svg">
<g opacity="0.1" clip-path="url(#clip0_768_29456)">
<path d="M1074.28 80.4591L891.638 129.459L861.997 694.409L646.838 752.089L639.688 888.719L1035.6 782.599C1045.93 779.829 1055.12 773.86 1061.85 765.546C1068.59 757.233 1072.52 747.002 1073.08 736.319L1106.08 106.319C1106.29 102.329 1105.56 98.3441 1103.94 94.6908C1102.32 91.0375 1099.86 87.8189 1096.76 85.2976C1093.66 82.7762 1090 81.0236 1086.1 80.1828C1082.19 79.3419 1078.14 79.4366 1074.28 80.4591Z" stroke="#BCE909" stroke-width="4" stroke-linejoin="round"/>
<path d="M0.998077 890.849L33.9981 260.749C34.5606 250.067 38.4897 239.838 45.2225 231.526C51.9552 223.214 61.146 217.247 71.4781 214.479L865.048 1.88908C868.908 0.846246 872.96 0.733396 876.872 1.55979C880.783 2.38618 884.444 4.12827 887.552 6.64313C890.66 9.15798 893.128 12.3739 894.752 16.0271C896.377 19.6803 897.112 23.6667 896.898 27.6591L861.998 694.409L646.828 752.079L32.8281 916.619C28.9702 917.649 24.9236 917.752 21.0182 916.92C17.1129 916.089 13.4595 914.345 10.3562 911.833C7.25284 909.32 4.78743 906.11 3.16111 902.463C1.53478 898.816 0.793616 894.837 0.998077 890.849Z" stroke="#BCE909" stroke-width="4" stroke-linejoin="round"/>
</g>
<defs>
<clipPath id="clip0_768_29456">
<rect width="1107.16" height="918.49" fill="white"/>
</clipPath>
</defs>
</svg>
