<svg width="1110" height="921" viewBox="0 0 1110 921" fill="none" xmlns="http://www.w3.org/2000/svg">
<path d="M1075.31 81.4454L892.673 130.445L863.033 695.395L647.873 753.075L640.723 889.705L1036.63 783.585C1046.97 780.815 1056.16 774.846 1062.89 766.533C1069.62 758.219 1073.55 747.988 1074.11 737.305L1107.11 107.305C1107.33 103.315 1106.59 99.3304 1104.97 95.6771C1103.35 92.0238 1100.89 88.8052 1097.79 86.2839C1094.69 83.7626 1091.04 82.01 1087.13 81.1691C1083.23 80.3282 1079.18 80.4229 1075.31 81.4454Z" stroke="#BCE909" stroke-opacity="0.1" stroke-width="4" stroke-linejoin="round"/>
<path d="M2.03323 891.835L35.0332 261.735C35.5958 251.054 39.5249 240.824 46.2576 232.513C52.9903 224.201 62.1811 218.233 72.5132 215.465L866.083 2.87541C869.943 1.83257 873.995 1.71972 877.907 2.54612C881.819 3.37251 885.479 5.1146 888.587 7.62945C891.695 10.1443 894.163 13.3603 895.787 17.0135C897.412 20.6667 898.148 24.653 897.933 28.6454L863.033 695.395L647.863 753.065L33.8632 917.605C30.0054 918.635 25.9587 918.739 22.0534 917.907C18.1481 917.075 14.4947 915.332 11.3913 912.819C8.28799 910.307 5.82259 907.096 4.19626 903.449C2.56994 899.803 1.82877 895.823 2.03323 891.835Z" stroke="#BCE909" stroke-opacity="0.1" stroke-width="4" stroke-linejoin="round"/>
</svg>
